<mxfile host="Electron" modified="2025-05-19T10:19:21.669Z" agent="Mozilla/5.0 (Windows NT 10.0; Win64; x64) AppleWebKit/537.36 (KHTML, like Gecko) draw.io/22.1.2 Chrome/114.0.5735.289 Electron/25.9.4 Safari/537.36" etag="ZKDID2jyyAO0hqIotRfx" version="22.1.2" type="device">
  <diagram name="Page-1" id="wq4h93sRcfCXg8gCF1JU">
    <mxGraphModel dx="1036" dy="614" grid="1" gridSize="10" guides="1" tooltips="1" connect="1" arrows="1" fold="1" page="1" pageScale="1" pageWidth="3300" pageHeight="2339" math="0" shadow="0">
      <root>
        <mxCell id="0" />
        <mxCell id="1" parent="0" />
        <mxCell id="k71IOwdjn7NnhgD6KbgM-1" value="Пользователь&lt;div&gt;&lt;br&gt;&lt;/div&gt;" style="shape=umlActor;verticalLabelPosition=bottom;verticalAlign=top;html=1;outlineConnect=0;" parent="1" vertex="1">
          <mxGeometry x="30" y="330" width="30" height="60" as="geometry" />
        </mxCell>
        <mxCell id="k71IOwdjn7NnhgD6KbgM-25" value="Лопнуть шарик" style="ellipse;whiteSpace=wrap;html=1;" parent="1" vertex="1">
          <mxGeometry x="205" y="340" width="190" height="50" as="geometry" />
        </mxCell>
        <mxCell id="k71IOwdjn7NnhgD6KbgM-28" value="" style="endArrow=none;html=1;rounded=0;entryX=-0.008;entryY=0.413;entryDx=0;entryDy=0;entryPerimeter=0;endFill=0;" parent="1" target="k71IOwdjn7NnhgD6KbgM-25" edge="1">
          <mxGeometry width="50" height="50" relative="1" as="geometry">
            <mxPoint x="70" y="360" as="sourcePoint" />
            <mxPoint x="165" y="664" as="targetPoint" />
          </mxGeometry>
        </mxCell>
        <mxCell id="k71IOwdjn7NnhgD6KbgM-43" value="Запустить игру" style="ellipse;whiteSpace=wrap;html=1;" parent="1" vertex="1">
          <mxGeometry x="220" y="290" width="160" height="40" as="geometry" />
        </mxCell>
        <mxCell id="k71IOwdjn7NnhgD6KbgM-47" value="" style="endArrow=none;html=1;rounded=0;entryX=0.042;entryY=0.226;entryDx=0;entryDy=0;entryPerimeter=0;endFill=0;" parent="1" target="k71IOwdjn7NnhgD6KbgM-43" edge="1">
          <mxGeometry width="50" height="50" relative="1" as="geometry">
            <mxPoint x="70" y="360" as="sourcePoint" />
            <mxPoint x="129" y="793" as="targetPoint" />
          </mxGeometry>
        </mxCell>
        <mxCell id="k71IOwdjn7NnhgD6KbgM-69" value="Лопнуть бомбочку" style="ellipse;whiteSpace=wrap;html=1;" parent="1" vertex="1">
          <mxGeometry x="220" y="400" width="190" height="50" as="geometry" />
        </mxCell>
        <mxCell id="k71IOwdjn7NnhgD6KbgM-70" value="" style="endArrow=none;html=1;rounded=0;entryX=-0.008;entryY=0.413;entryDx=0;entryDy=0;entryPerimeter=0;endFill=0;" parent="1" target="k71IOwdjn7NnhgD6KbgM-69" edge="1">
          <mxGeometry width="50" height="50" relative="1" as="geometry">
            <mxPoint x="70" y="360" as="sourcePoint" />
            <mxPoint x="165" y="734" as="targetPoint" />
          </mxGeometry>
        </mxCell>
        <mxCell id="k71IOwdjn7NnhgD6KbgM-71" value="Перезапустить игру" style="ellipse;whiteSpace=wrap;html=1;" parent="1" vertex="1">
          <mxGeometry x="205" y="460" width="190" height="50" as="geometry" />
        </mxCell>
        <mxCell id="k71IOwdjn7NnhgD6KbgM-72" value="" style="endArrow=none;html=1;rounded=0;entryX=-0.008;entryY=0.413;entryDx=0;entryDy=0;entryPerimeter=0;endFill=0;" parent="1" target="k71IOwdjn7NnhgD6KbgM-71" edge="1">
          <mxGeometry width="50" height="50" relative="1" as="geometry">
            <mxPoint x="70" y="360" as="sourcePoint" />
            <mxPoint x="175" y="804" as="targetPoint" />
          </mxGeometry>
        </mxCell>
      </root>
    </mxGraphModel>
  </diagram>
</mxfile>
